<?xml version="1.0" encoding="UTF-8" standalone="no"?>
<!DOCTYPE svg PUBLIC "-//W3C//DTD SVG 1.1//EN" "http://www.w3.org/Graphics/SVG/1.1/DTD/svg11.dtd">
<svg xmlns:dc="http://purl.org/dc/elements/1.1/" xmlns="http://www.w3.org/2000/svg" xmlns:xl="http://www.w3.org/1999/xlink" version="1.1" viewBox="147 57.38422 22 22" width="22" height="22">
  <defs>
    <linearGradient x1="0" x2="1" id="Gradient" gradientUnits="userSpaceOnUse">
      <stop offset="0" stop-color="#f26077"/>
      <stop offset="1" stop-color="#5070ff"/>
    </linearGradient>
    <linearGradient id="Obj_Gradient" xl:href="#Gradient" gradientTransform="translate(158 57.88422) rotate(90) scale(21)"/>
  </defs>
  <metadata> Produced by OmniGraffle 7.17.4\n2020-09-10 10:29:56 +0000</metadata>
  <g id="Canvas_1" stroke="none" stroke-opacity="1" stroke-dasharray="none" fill="none" fill-opacity="1">
    <title>Canvas 1</title>
    <g id="Canvas_1_Layer_1">
      <title>Layer 1</title>
      <g id="Graphic_11">
        <path d="M 149.38664 64.95933 C 147.58211 64.03722 148.96622 61.02183 151.34531 61.10394 C 151.02737 59.83239 153.96002 57.88422 156.34919 59.77086 C 156.64655 58.35588 161.26067 58.04823 161.90684 60.34521 C 162.60404 58.70448 167.895 59.58627 166.61336 62.51892 C 168.6846 62.10879 169.6485 67.07172 166.21331 67.21536 C 167.12597 68.99952 163.76261 70.61967 162.41945 69.53271 C 162.59375 71.05017 157.66169 72.38325 156.70808 69.94284 C 156.32861 71.4603 151.40684 70.45545 152.15528 68.4048 C 150.69914 69.18411 147.66401 66.70254 149.38664 64.95933 Z M 152.86277 73.96245 C 152.52446 74.45448 152.77058 75.33627 153.85733 74.6187 C 153.93944 75.33627 155.42624 75.41838 155.70302 74.6187 C 156.50291 75.11073 157.17974 74.51601 156.73874 73.71633 C 157.60016 73.6548 157.28222 71.97312 156.10307 72.62937 C 156.40043 71.97312 154.63664 71.35782 154.42139 72.4242 C 154.02155 71.85006 152.95517 71.82948 152.97554 72.81396 C 152.31929 72.56784 151.7861 73.94187 152.86277 73.96245 Z M 149.80706 76.93605 C 149.63276 77.34618 150.75059 77.63325 150.85307 76.99758 C 151.47845 77.18217 151.74515 76.60782 151.34531 76.19769 C 151.73486 75.58239 150.78125 75.23379 150.48389 75.76698 C 150.09434 75.17226 149.27387 75.82851 149.58152 76.23864 C 148.93556 76.48476 149.40722 77.12064 149.80706 76.93605 Z" fill="url(#Obj_Gradient)"/>
        <path d="M 149.38664 64.95933 C 147.58211 64.03722 148.96622 61.02183 151.34531 61.10394 C 151.02737 59.83239 153.96002 57.88422 156.34919 59.77086 C 156.64655 58.35588 161.26067 58.04823 161.90684 60.34521 C 162.60404 58.70448 167.895 59.58627 166.61336 62.51892 C 168.6846 62.10879 169.6485 67.07172 166.21331 67.21536 C 167.12597 68.99952 163.76261 70.61967 162.41945 69.53271 C 162.59375 71.05017 157.66169 72.38325 156.70808 69.94284 C 156.32861 71.4603 151.40684 70.45545 152.15528 68.4048 C 150.69914 69.18411 147.66401 66.70254 149.38664 64.95933 Z M 152.86277 73.96245 C 152.52446 74.45448 152.77058 75.33627 153.85733 74.6187 C 153.93944 75.33627 155.42624 75.41838 155.70302 74.6187 C 156.50291 75.11073 157.17974 74.51601 156.73874 73.71633 C 157.60016 73.6548 157.28222 71.97312 156.10307 72.62937 C 156.40043 71.97312 154.63664 71.35782 154.42139 72.4242 C 154.02155 71.85006 152.95517 71.82948 152.97554 72.81396 C 152.31929 72.56784 151.7861 73.94187 152.86277 73.96245 Z M 149.80706 76.93605 C 149.63276 77.34618 150.75059 77.63325 150.85307 76.99758 C 151.47845 77.18217 151.74515 76.60782 151.34531 76.19769 C 151.73486 75.58239 150.78125 75.23379 150.48389 75.76698 C 150.09434 75.17226 149.27387 75.82851 149.58152 76.23864 C 148.93556 76.48476 149.40722 77.12064 149.80706 76.93605 Z" stroke="#3b7cd0" stroke-linecap="round" stroke-linejoin="round" stroke-width="1"/>
      </g>
    </g>
  </g>
</svg>
